<svg xmlns="http://www.w3.org/2000/svg" xmlns:xlink="http://www.w3.org/1999/xlink" viewBox="0 0 171.02 257.43"><defs><style>.cls-1{fill:#d8dfea;}.cls-2{fill:url(#linear-gradient);}.cls-3{fill:url(#linear-gradient-2);}.cls-4{fill:url(#linear-gradient-3);}.cls-5{fill:url(#linear-gradient-4);}.cls-6{fill:url(#linear-gradient-5);}</style><linearGradient id="linear-gradient" x1="64.5" y1="207.06" x2="166.85" y2="164.97" gradientUnits="userSpaceOnUse"><stop offset="0" stop-color="red"/><stop offset="0.04" stop-color="#e10000"/><stop offset="0.08" stop-color="#960000"/><stop offset="0.29" stop-color="#f80003"/><stop offset="0.44" stop-color="#dc0004"/><stop offset="0.56" stop-color="#f80003"/><stop offset="0.69" stop-color="#cd0001"/><stop offset="0.85" stop-color="#980001"/><stop offset="0.96" stop-color="#e30002"/><stop offset="1" stop-color="#ff0002"/></linearGradient><linearGradient id="linear-gradient-2" x1="1.76" y1="165.33" x2="115.18" y2="209.04" xlink:href="#linear-gradient"/><linearGradient id="linear-gradient-3" x1="21.35" y1="27.97" x2="165.49" y2="152.61" gradientUnits="userSpaceOnUse"><stop offset="0" stop-color="#ef832b"/><stop offset="0.13" stop-color="#f79c51"/><stop offset="0.29" stop-color="#ff9539"/><stop offset="0.45" stop-color="#ffae7b"/><stop offset="0.56" stop-color="#ff8f39"/><stop offset="0.7" stop-color="#ff9239"/><stop offset="0.85" stop-color="#ffb27b"/><stop offset="1" stop-color="#e07426"/></linearGradient><linearGradient id="linear-gradient-4" x1="9.48" y1="83.44" x2="161.53" y2="83.44" gradientUnits="userSpaceOnUse"><stop offset="0" stop-color="#ab501f"/><stop offset="0.14" stop-color="#a65b25"/><stop offset="0.29" stop-color="#db6c12"/><stop offset="0.45" stop-color="#db824a"/><stop offset="0.56" stop-color="#d16b1d"/><stop offset="0.7" stop-color="#c45a21"/><stop offset="0.85" stop-color="#f78c3e"/><stop offset="1" stop-color="#d16c24"/></linearGradient><linearGradient id="linear-gradient-5" x1="32.24" y1="37.49" x2="187" y2="171" xlink:href="#linear-gradient-3"/></defs><g id="Layer_2" data-name="Layer 2"><g id="objects"><ellipse class="cls-1" cx="85.51" cy="253.78" rx="85.51" ry="3.65"/><path class="cls-2" d="M100.35,243.51l22.74-36a2.8,2.8,0,0,1,3-1.23l41.44,9.83a2.81,2.81,0,0,0,3.25-3.8l-35.18-86.22L60.19,156.84l35.18,86.23A2.81,2.81,0,0,0,100.35,243.51Z"/><path class="cls-3" d="M110.82,156.84l-4.09,10L91.58,204,91,205.54,85.51,218.9l-9.87,24.17a2.81,2.81,0,0,1-5,.44l-22.74-36a2.81,2.81,0,0,0-3-1.24L3.46,216.09a2.81,2.81,0,0,1-3.25-3.8l35.18-86.22Z"/><circle class="cls-4" cx="85.51" cy="83.44" r="83.44"/><circle class="cls-5" cx="85.51" cy="83.44" r="76.02"/><circle class="cls-6" cx="85.51" cy="83.44" r="71.37"/></g></g></svg>