<svg xmlns="http://www.w3.org/2000/svg" viewBox="0 0 56.74 56.74"><defs><style>.cls-1{fill:#fff;stroke:#222221;stroke-miterlimit:10;stroke-width:1.74px;}.cls-2{fill:#222221;}</style></defs><g id="Layer_2" data-name="Layer 2"><g id="OBJECTS"><circle class="cls-1" cx="28.37" cy="28.37" r="27.5" transform="translate(-2.25 54.3) rotate(-85.25)"/><path class="cls-2" d="M19.9,55a2.41,2.41,0,0,0,1.46-2.22V46.24a6.42,6.42,0,0,1,.05-.74l-.05,0H17a4.36,4.36,0,0,1-4.11-2.18C12,41.76,11.68,39.1,9.5,37.65c-.36-.24-.12-.61.6-.61a6.62,6.62,0,0,1,3.27,2.42c1.09,1.34,2.18,2.42,4.12,2.42,3,0,4.62-.15,5.59-.67,1.14-1.68,2.7-3,4.34-3v0c-6.87-.22-11.25-2.5-13.29-6a72.31,72.31,0,0,0-10.51.86q-.11-.6-.18-1.2A73.87,73.87,0,0,1,13.54,31c-.13-.34-.25-.68-.35-1a76.25,76.25,0,0,0-9.91.12c0-.41-.06-.81-.06-1.21a78.28,78.28,0,0,1,9.71-.14,11.32,11.32,0,0,1-.16-1.87,10.39,10.39,0,0,1,2.06-6.05c-.61-2.06-1.46-6.42.24-8a10.08,10.08,0,0,1,6.66,2.54A17.87,17.87,0,0,1,28.63,14a16.9,16.9,0,0,1,6.78,1.33,10.08,10.08,0,0,1,6.66-2.54c1.81,1.69.84,6,.24,8a9.24,9.24,0,0,1,1.93,6.05,12,12,0,0,1-.13,1.71A80.65,80.65,0,0,1,54,28.7c0,.41,0,.81-.06,1.21a78,78,0,0,0-10.12-.11A11,11,0,0,1,43.47,31a76.66,76.66,0,0,1,10.35.83c-.06.41-.12.8-.19,1.2a74.85,74.85,0,0,0-10.75-.83c-2,3.49-6.31,5.76-13,6v0c3.15,0,6.05,4.72,6.05,8v6.54A2.41,2.41,0,0,0,37.35,55,27.85,27.85,0,1,0,19.9,55Z"/></g></g></svg>