<svg xmlns="http://www.w3.org/2000/svg" viewBox="0 0 56.74 56.74"><defs><style>.cls-1{fill:#1a1a1a;stroke:#222221;}.cls-1,.cls-2{stroke-miterlimit:10;stroke-width:1.74px;}.cls-2{fill:none;stroke:#fff;}.cls-3{fill:#fff;}</style></defs><g id="Layer_2" data-name="Layer 2"><g id="OBJECTS"><circle class="cls-1" cx="28.37" cy="28.37" r="27.5" transform="translate(-2.25 54.3) rotate(-85.25)"/><circle class="cls-2" cx="28.37" cy="28.37" r="26.5"/><circle class="cls-2" cx="28.37" cy="28.37" r="23.6" transform="translate(-8.61 12.8) rotate(-22.16)"/><circle class="cls-2" cx="28.37" cy="28.37" r="20.7"/><path class="cls-3" d="M22.91,45.54a1.61,1.61,0,0,0,1-1.46V39.79a4.15,4.15,0,0,1,0-.49H21a2.86,2.86,0,0,1-2.7-1.43c-.56-1-.8-2.78-2.23-3.73-.24-.16-.08-.4.4-.4a4.33,4.33,0,0,1,2.15,1.59,3.36,3.36,0,0,0,2.7,1.59A8.67,8.67,0,0,0,25,36.49a3.78,3.78,0,0,1,2.84-2v0c-4.5-.14-7.38-1.64-8.72-4a47.37,47.37,0,0,0-6.89.56q-.08-.39-.12-.78a47.38,47.38,0,0,1,6.63-.57,5.3,5.3,0,0,1-.23-.67,51.65,51.65,0,0,0-6.51.07c0-.26,0-.52,0-.79a50.68,50.68,0,0,1,6.37-.09,8.14,8.14,0,0,1-.1-1.22,6.86,6.86,0,0,1,1.35-4c-.4-1.35-.95-4.21.16-5.24a6.62,6.62,0,0,1,4.37,1.67,11.72,11.72,0,0,1,4.53-.88,11.1,11.1,0,0,1,4.45.88,6.57,6.57,0,0,1,4.37-1.67c1.19,1.11.55,4,.15,5.24a6.06,6.06,0,0,1,1.28,4,8.06,8.06,0,0,1-.09,1.12,55.71,55.71,0,0,1,6.52.08c0,.27,0,.53,0,.8A51.91,51.91,0,0,0,38.63,29a7.83,7.83,0,0,1-.25.78,50,50,0,0,1,6.79.54l-.12.79A48.35,48.35,0,0,0,38,30.57c-1.32,2.28-4.14,3.77-8.56,4v0c2.07,0,4,3.1,4,5.25v4.29a1.61,1.61,0,0,0,1,1.46,18.28,18.28,0,1,0-11.45,0Z"/></g></g></svg>