<svg xmlns="http://www.w3.org/2000/svg" viewBox="0 0 56.74 56.74"><defs><style>.cls-1{fill:#1a1a1a;stroke:#222221;stroke-miterlimit:10;stroke-width:1.74px;}.cls-2{fill:#fff;}</style></defs><g id="Layer_2" data-name="Layer 2"><g id="OBJECTS"><circle class="cls-1" cx="28.37" cy="28.37" r="27.5" transform="matrix(0.08, -1, 1, 0.08, -2.25, 54.3)"/><path class="cls-2" d="M20.06,53.55a2.31,2.31,0,0,0,1.4-2.12V45.21a5.74,5.74,0,0,1,0-.71l0,0H17.31a4.16,4.16,0,0,1-3.92-2.08c-.81-1.5-1.15-4-3.23-5.42-.34-.23-.11-.57.58-.57a6.31,6.31,0,0,1,3.11,2.3c1,1.27,2.07,2.31,3.92,2.31,2.86,0,4.4-.15,5.33-.64,1.07-1.6,2.56-2.82,4.12-2.82v0c-6.53-.21-10.71-2.38-12.65-5.73a69.71,69.71,0,0,0-10,.81q-.11-.55-.18-1.14A71.62,71.62,0,0,1,14,30.69a8.06,8.06,0,0,1-.33-1,74.56,74.56,0,0,0-9.44.12c0-.39,0-.77-.06-1.16a75.63,75.63,0,0,1,9.24-.12,11.55,11.55,0,0,1-.15-1.78,10,10,0,0,1,2-5.77c-.57-1.95-1.38-6.1.23-7.6a9.58,9.58,0,0,1,6.34,2.42,17.06,17.06,0,0,1,6.57-1.27,16.11,16.11,0,0,1,6.46,1.27,9.53,9.53,0,0,1,6.34-2.42c1.72,1.61.8,5.76.23,7.6a8.87,8.87,0,0,1,1.84,5.77,10.84,10.84,0,0,1-.13,1.62,75.07,75.07,0,0,1,9.46.12c0,.39,0,.77-.06,1.15a74.58,74.58,0,0,0-9.63-.1,11.53,11.53,0,0,1-.38,1.13,70.53,70.53,0,0,1,9.85.79c-.05.38-.1.76-.17,1.14A70.35,70.35,0,0,0,42,31.83c-1.92,3.32-6,5.48-12.43,5.73v0c3,0,5.77,4.5,5.77,7.61v6.22a2.3,2.3,0,0,0,1.39,2.12,26.51,26.51,0,1,0-16.62,0Z"/></g></g></svg>