<svg xmlns="http://www.w3.org/2000/svg" viewBox="0 0 56.74 56.74"><defs><style>.cls-1{fill:#1a1a1a;stroke:#222221;}.cls-1,.cls-2{stroke-miterlimit:10;stroke-width:1.74px;}.cls-2{fill:none;stroke:#fff;}.cls-3{fill:#fff;}</style></defs><g id="Layer_2" data-name="Layer 2"><g id="OBJECTS"><circle class="cls-1" cx="28.37" cy="28.37" r="27.5" transform="matrix(0.08, -1, 1, 0.08, -2.05, 54.53)"/><circle class="cls-2" cx="28.37" cy="28.37" r="26.5"/><circle class="cls-2" cx="28.37" cy="28.37" r="23.6"/><circle class="cls-2" cx="28.37" cy="28.37" r="20.7"/><rect class="cls-3" x="17.78" y="23.18" width="4.89" height="15.8"/><path class="cls-3" d="M20.2,21.11a2.92,2.92,0,1,0-2.89-2.92A2.91,2.91,0,0,0,20.2,21.11Z"/><path class="cls-3" d="M30.48,30.68c0-2.22,1-3.54,3-3.54,1.8,0,2.66,1.27,2.66,3.54V39H41V29c0-4.23-2.4-6.28-5.75-6.28a5.51,5.51,0,0,0-4.76,2.61V23.18H25.79V39h4.69Z"/></g></g></svg>