<svg xmlns="http://www.w3.org/2000/svg" viewBox="0 0 56.74 56.74"><defs><style>.cls-1{fill:#1a1a1a;stroke:#222221;}.cls-1,.cls-2{stroke-miterlimit:10;stroke-width:1.74px;}.cls-2{fill:none;stroke:#fff;}.cls-3{fill:#fff;}</style></defs><g id="Layer_2" data-name="Layer 2"><g id="OBJECTS"><circle class="cls-1" cx="28.37" cy="28.37" r="27.5" transform="translate(-2.67 53.79) rotate(-84.31)"/><circle class="cls-2" cx="28.37" cy="28.37" r="26.5" transform="translate(-0.14 0.14) rotate(-0.29)"/><circle class="cls-2" cx="28.37" cy="28.37" r="23.6" transform="translate(-4.15 51.87) rotate(-80.85)"/><circle class="cls-2" cx="28.37" cy="28.37" r="20.7" transform="translate(-0.15 0.15) rotate(-0.31)"/><circle class="cls-3" cx="28.37" cy="28.23" r="19.26"/><path d="M28.37,9A19.26,19.26,0,1,1,9.11,28.23,19.26,19.26,0,0,1,28.37,9ZM35,36.08c.35-1.08,2-11.92,2.21-14a1.14,1.14,0,0,0-.54-1.27,2.84,2.84,0,0,0-2,.19c-1.14.41-15.72,6.6-16.56,7s-1.56.7-1.56,1.24c0,.38.23.59.84.81s2.26.72,3.21,1a3.45,3.45,0,0,0,2.55-.33c.62-.39,7.8-5.18,8.31-5.6s.92.11.5.54-5.34,5.19-6,5.85a1.21,1.21,0,0,0,.3,2c.61.38,4.95,3.3,5.6,3.76a3.33,3.33,0,0,0,1.93.68C34.39,37.81,34.71,37,35,36.08Z"/></g></g></svg>