<svg xmlns="http://www.w3.org/2000/svg" viewBox="0 0 55.43 55.43"><g id="Layer_2" data-name="Layer 2"><g id="OBJECTS"><path d="M27.72,0A27.72,27.72,0,1,1,0,27.72,27.71,27.71,0,0,1,27.72,0Zm9.56,39c.51-1.57,2.9-17.16,3.19-20.23A1.64,1.64,0,0,0,39.69,17a4,4,0,0,0-2.92.26c-1.64.59-22.63,9.5-23.84,10s-2.24,1-2.24,1.79c0,.54.32.85,1.21,1.16s3.25,1,4.62,1.41a5,5,0,0,0,3.67-.47c.9-.56,11.22-7.46,12-8.07s1.33.17.72.78-7.69,7.48-8.62,8.43a1.75,1.75,0,0,0,.43,2.83c.87.55,7.12,4.74,8.06,5.42a4.8,4.8,0,0,0,2.77,1C36.38,41.5,36.84,40.35,37.28,39Z"/></g></g></svg>